# xmcd
# Track frame offsets:
# 150
# 14705
# 30977
# 49072
# 68895
# 82730
# 97792
# 113529
# 134555
# 149830
# 167075
# 182127
# 194495
#
# Disc length: 2804 seconds
# Revision: 0
# Processed by: cddbd v1.4PL0 Copyright (c) Steve Scherf et al.
# Submitted via: VisiTrax 2.9.5.181 - For more info visit www.synapsa.com
#
DISCID=b00af20d
DTITLE=Belle Starr - nobody you'd know
DYEAR=2000
DGENRE=Rockabilly
TTITLE0=our house is a mess
TTITLE1=long time gone
TTITLE2=nobody you'd know
TTITLE3=intoxicated
TTITLE4=rearview
TTITLE5=I get the point
TTITLE6=kinder days
TTITLE7=word gets around
TTITLE8=all over you
TTITLE9=out of the mouths of babes
TTITLE10=gotta be a better way
TTITLE11=bet you're feeling the same
TTITLE12=yet so far
EXTD=
EXTT0=
EXTT1=
EXTT2=
EXTT3=
EXTT4=
EXTT5=
EXTT6=
EXTT7=
EXTT8=
EXTT9=
EXTT10=
EXTT11=
EXTT12=
PLAYORDER=
